# xmcd CD database file
#
# Track frame offsets:
#	150
#	15308
#	43414
#	63285
#	89069
#	112741
#	134635
#	164021
#	194847
#	222957
#
# Disc length: 3360 seconds
#
# Revision: 0
# Processed by: cddbd v1.5.2PL0 Copyright (c) Steve Scherf et al.
# Submitted via: CDex 1.70beta2
#
DISCID=970d1e0a
DTITLE=Oskar Schönning - Puerto
DYEAR=2008
DGENRE=Jazz
TTITLE0=Eira
TTITLE1=Faustine
TTITLE2=Puerto
TTITLE3=Ayomi
TTITLE4=Molly
TTITLE5=Fernande
TTITLE6=Some other, something else
TTITLE7=Hilly Billy
TTITLE8=France
TTITLE9=A kind of farewell
EXTD=YEAR: 2008
EXTT0=
EXTT1=
EXTT2=
EXTT3=
EXTT4=
EXTT5=
EXTT6=
EXTT7=
EXTT8=
EXTT9=
PLAYORDER=
